<?xml version="1.0" standalone="no"?>
<!DOCTYPE svg PUBLIC "-//W3C//DTD SVG 20010904//EN"
 "http://www.w3.org/TR/2001/REC-SVG-20010904/DTD/svg10.dtd">
<svg version="1.0" xmlns="http://www.w3.org/2000/svg"
 width="1225.000000pt" height="1225.000000pt" viewBox="0 0 1225.000000 1225.000000"
 preserveAspectRatio="xMidYMid meet">
<metadata>
Created by potrace 1.11, written by Peter Selinger 2001-2013
</metadata>
<g transform="translate(0.000000,1225.000000) scale(0.100000,-0.100000)"
fill="#000000" stroke="none">
<path d="M5350 12229 c-122 -48 -234 -148 -295 -264 -16 -31 -36 -69 -44 -83
-40 -76 -77 -204 -89 -307 -31 -281 30 -573 215 -1039 41 -103 94 -231 118
-282 24 -52 41 -94 38 -94 -3 0 -1 -6 5 -12 11 -14 138 -309 197 -458 36 -91
91 -256 116 -350 l13 -45 14 80 c12 67 82 386 96 435 2 8 7 29 11 45 4 17 27
106 52 199 25 93 46 176 48 185 2 9 22 90 45 181 23 91 44 174 46 184 2 11 12
63 23 115 18 85 35 193 56 341 4 25 8 117 10 205 7 353 -71 603 -259 828 -108
129 -285 187 -416 136z"/>
<path d="M7673 11955 c-144 -40 -301 -159 -409 -311 -75 -105 -146 -277 -180
-439 -30 -138 -44 -237 -60 -415 -3 -36 -7 -321 -9 -635 -4 -630 -7 -731 -30
-902 -3 -18 -3 -33 -1 -33 2 0 20 28 41 63 31 50 95 141 142 202 58 74 119
151 123 155 3 3 35 41 70 85 36 44 77 93 91 110 15 16 59 68 99 115 39 47 82
96 94 110 13 14 73 90 135 170 61 80 115 150 119 155 14 18 117 178 147 230
130 222 198 450 198 665 -1 206 -41 324 -176 511 -93 129 -113 150 -160 164
-58 17 -172 17 -234 0z"/>
<path d="M3275 11242 c-171 -17 -326 -170 -395 -387 -34 -109 -37 -290 -7
-435 14 -67 22 -94 44 -160 100 -291 332 -576 738 -904 39 -31 77 -62 85 -69
8 -7 35 -28 60 -47 25 -19 47 -37 50 -41 3 -3 23 -18 45 -35 22 -16 49 -37 60
-46 11 -9 70 -57 132 -105 114 -91 202 -167 284 -244 25 -24 56 -53 69 -64
l23 -20 -7 25 c-50 177 -120 506 -141 660 -1 8 -5 35 -9 60 -4 25 -10 59 -12
75 -2 17 -11 66 -19 110 -8 44 -17 98 -20 120 -4 22 -8 47 -10 55 -2 8 -7 31
-10 50 -12 75 -48 240 -75 350 -152 602 -352 882 -737 1031 -37 14 -111 25
-148 21z"/>
<path d="M9558 10575 c-1 -1 -21 -5 -43 -9 -179 -25 -362 -157 -527 -378 -101
-134 -270 -439 -372 -668 -16 -36 -44 -96 -61 -135 -18 -38 -42 -91 -53 -116
-154 -342 -299 -623 -410 -796 -12 -19 7 -13 109 36 68 32 207 89 309 126 102
37 194 71 205 75 11 5 67 25 125 45 58 21 177 66 265 100 535 211 808 443 927
785 44 128 71 368 53 470 -38 213 -125 348 -270 420 -33 17 -71 33 -85 36 -29
6 -167 14 -172 9z"/>
<path d="M6248 9227 c-9 -23 -19 -49 -22 -57 -36 -90 -236 -312 -362 -403
-122 -88 -310 -133 -434 -104 -19 4 -46 10 -60 13 -92 18 -251 124 -321 213
-19 23 -39 48 -45 55 -6 6 -13 18 -16 26 -2 8 -8 -28 -11 -80 -14 -187 -88
-416 -181 -559 -181 -278 -483 -392 -772 -293 -106 37 -140 41 -129 15 40 -98
38 -312 -6 -554 -53 -296 -136 -537 -241 -700 -42 -64 -111 -134 -150 -152
-15 -6 -27 -15 -26 -19 2 -3 24 -28 49 -55 65 -69 109 -133 171 -253 105 -204
132 -312 131 -520 -2 -189 -57 -372 -159 -521 -21 -30 -40 -56 -43 -59 -3 -3
-30 -31 -59 -61 l-53 -55 48 -3 c92 -4 240 -53 293 -96 192 -156 319 -387 356
-651 27 -198 -15 -474 -87 -572 l-31 -43 63 40 c69 43 217 96 287 104 61 6
191 -18 259 -49 163 -75 293 -204 380 -379 29 -57 58 -135 68 -183 3 -12 7
-32 10 -45 11 -46 18 -135 18 -224 0 -51 4 -93 8 -93 5 0 9 4 9 9 0 14 118 67
186 85 155 40 291 54 474 51 91 -1 183 -6 205 -10 106 -17 247 -65 294 -100
36 -26 111 -109 111 -123 0 -31 9 -5 25 70 31 151 97 313 177 433 91 136 255
267 393 315 157 55 336 54 470 -1 17 -7 32 -13 35 -14 18 -4 103 -53 143 -82
l49 -34 -6 58 c-4 32 -9 66 -12 75 -12 40 -11 215 2 265 8 29 16 67 19 85 64
370 333 672 645 726 19 3 83 6 141 6 l107 0 -52 50 c-87 86 -137 163 -182 281
-23 63 -27 80 -44 180 -9 55 -6 285 5 325 3 14 7 34 9 45 15 106 102 302 176
399 67 88 247 236 287 236 25 0 13 16 -13 18 -52 4 -169 70 -230 129 -155 149
-251 305 -298 486 -61 235 -22 537 93 719 16 25 27 48 24 51 -2 3 -18 1 -35
-3 -43 -13 -186 -5 -233 13 -267 97 -448 280 -548 552 -57 155 -71 298 -53
525 l7 95 -43 -45 c-89 -95 -205 -160 -308 -175 -25 -3 -59 -10 -76 -16 -50
-16 -75 -20 -149 -24 -179 -9 -337 56 -481 200 -122 121 -216 302 -231 444 -3
31 -6 57 -7 58 -1 1 -9 -17 -18 -40z"/>
<path d="M1789 9200 c-94 -24 -165 -66 -239 -140 -115 -115 -163 -245 -159
-432 2 -138 27 -233 92 -357 153 -294 434 -474 907 -582 47 -11 99 -22 115
-25 17 -2 37 -7 45 -9 8 -2 35 -7 60 -10 25 -3 52 -8 60 -10 8 -2 35 -7 60
-10 25 -3 56 -8 70 -10 14 -2 45 -7 70 -10 25 -3 72 -10 105 -15 33 -5 80 -12
105 -15 40 -6 227 -37 305 -51 35 -6 207 -51 230 -60 8 -3 -5 16 -30 43 -99
108 -227 285 -463 637 -222 334 -374 549 -457 646 -70 82 -216 221 -285 272
-191 140 -398 189 -591 138z"/>
<path d="M10470 8210 c-86 -19 -194 -53 -214 -68 -6 -5 -27 -15 -46 -22 -53
-21 -185 -97 -285 -163 -78 -52 -331 -240 -345 -256 -3 -3 -60 -50 -128 -105
-68 -54 -129 -104 -135 -110 -36 -35 -332 -266 -421 -328 -58 -40 -104 -73
-103 -74 1 -1 45 -4 97 -8 52 -3 104 -8 115 -10 11 -2 47 -7 80 -11 32 -3 62
-8 65 -10 3 -2 26 -6 50 -10 25 -3 119 -22 210 -41 231 -49 439 -92 478 -99
17 -3 44 -7 60 -10 15 -2 47 -7 72 -10 25 -3 72 -9 105 -14 62 -9 365 -7 400
2 11 3 43 10 70 17 251 57 469 235 572 468 62 141 85 346 53 473 -49 191 -169
310 -380 379 -92 31 -257 35 -370 10z"/>
<path d="M8452 7678 c-21 -21 -13 -28 16 -16 41 18 49 28 21 28 -14 0 -30 -5
-37 -12z"/>
<path d="M3395 6669 c45 -53 55 -60 55 -38 0 12 -21 31 -55 51 l-20 11 20 -24z"/>
<path d="M1538 6674 c-2 -1 -25 -6 -52 -9 -185 -26 -415 -189 -499 -356 -52
-104 -70 -198 -64 -329 9 -164 69 -311 161 -393 12 -10 42 -38 67 -62 136
-128 306 -188 519 -181 235 8 518 98 1000 318 164 75 362 157 490 202 104 36
248 75 254 68 3 -3 6 0 6 6 0 6 -15 14 -32 18 -18 3 -46 12 -63 20 -16 7 -70
29 -120 49 -49 21 -169 78 -265 127 -169 87 -213 110 -405 213 -310 166 -542
259 -737 296 -58 10 -253 21 -260 13z"/>
<path d="M10248 5745 c-2 -2 -46 -6 -98 -9 -52 -4 -111 -9 -130 -11 -19 -2
-53 -7 -75 -9 -22 -3 -110 -14 -195 -25 -154 -20 -194 -25 -280 -36 -25 -2
-65 -7 -90 -10 -119 -15 -432 -21 -450 -10 -6 3 -10 4 -10 1 0 -3 28 -24 63
-48 53 -36 301 -232 333 -262 6 -6 37 -34 70 -63 32 -28 73 -64 89 -80 17 -15
66 -59 110 -98 43 -38 83 -75 89 -80 121 -116 442 -366 546 -424 258 -145 429
-188 615 -155 74 13 87 17 150 44 22 10 57 25 78 34 90 37 222 227 243 350 22
129 6 284 -43 410 -27 68 -100 174 -164 237 -134 132 -299 205 -529 235 -45 6
-317 13 -322 9z"/>
<path d="M3848 4485 c-11 -12 -286 -60 -393 -70 -27 -2 -77 -6 -110 -9 -117
-11 -181 -16 -275 -21 -52 -3 -120 -7 -150 -10 -30 -3 -84 -7 -120 -10 -171
-12 -374 -44 -505 -80 -253 -69 -423 -174 -553 -342 -28 -36 -90 -147 -169
-306 -136 -272 28 -667 302 -725 28 -6 77 -17 110 -24 189 -41 388 5 572 133
149 103 345 302 518 523 17 22 48 62 71 90 22 28 85 110 139 181 115 150 97
127 217 275 114 142 147 178 272 302 55 54 95 98 90 98 -6 0 -13 -2 -16 -5z"/>
<path d="M8414 4038 c80 -157 136 -286 246 -568 217 -554 289 -717 410 -935
121 -219 307 -417 450 -482 14 -6 42 -18 63 -28 20 -9 69 -22 108 -30 63 -12
81 -11 158 5 90 18 162 49 241 103 35 23 53 46 77 96 70 148 103 300 97 453
-7 164 -98 379 -228 533 -160 191 -380 343 -755 523 -166 79 -173 82 -351 162
-245 111 -548 272 -566 301 -3 5 -9 9 -14 9 -5 0 24 -64 64 -142z"/>
<path d="M4665 3298 c-117 -116 -319 -274 -625 -488 -398 -279 -612 -461 -752
-640 -32 -41 -63 -80 -68 -87 -20 -25 -80 -141 -109 -212 -56 -134 -79 -334
-58 -506 27 -231 169 -405 371 -454 117 -28 256 -7 390 60 247 125 446 429
566 867 63 229 85 324 181 807 44 220 82 407 83 415 13 54 66 259 72 273 9 24
6 22 -51 -35z"/>
<path d="M7240 3123 c10 -146 3 -506 -17 -873 -14 -267 -6 -910 12 -939 1 -3
6 -28 9 -56 12 -96 38 -211 71 -311 57 -173 126 -293 236 -408 66 -70 72 -74
156 -99 48 -14 104 -29 123 -32 19 -3 49 -7 65 -10 17 -3 63 -5 103 -6 62 -1
78 2 111 24 75 50 231 222 231 255 0 5 4 12 8 14 18 7 62 129 75 208 17 96 16
289 -1 390 -30 170 -98 349 -212 555 -28 52 -161 262 -183 290 -4 6 -49 66
-100 135 -50 69 -117 157 -146 195 -30 39 -107 138 -171 220 -144 184 -260
345 -325 448 -27 42 -49 77 -49 77 -1 0 1 -35 4 -77z"/>
<path d="M5966 2788 c-39 -95 -161 -343 -256 -523 -420 -795 -543 -1137 -535
-1491 1 -61 5 -119 8 -130 4 -10 9 -35 12 -54 9 -52 51 -168 85 -235 16 -32
30 -69 30 -81 0 -63 97 -178 195 -228 85 -45 171 -42 335 10 110 34 215 88
256 129 105 109 198 322 220 505 3 30 8 58 10 62 5 8 5 302 0 348 -2 19 -7 65
-11 102 -3 37 -7 75 -9 85 -2 10 -7 43 -11 73 -4 30 -9 64 -11 75 -3 11 -7 36
-10 55 -7 43 -85 422 -113 545 -11 50 -22 101 -25 115 -3 14 -16 79 -30 145
-22 101 -56 288 -71 385 -6 42 -18 154 -19 178 0 12 -3 22 -6 22 -3 0 -23 -42
-44 -92z"/>
</g>
</svg>
